<?xml version="1.0" encoding="UTF-8" standalone="no"?>
<svg
   width="1200"
   height="390"
   viewBox="0 0 1200 390"
   version="1.1"
   id="svg3"
   sodipodi:docname="logo-with-tagline.svg"
   xmlns:inkscape="http://www.inkscape.org/namespaces/inkscape"
   xmlns:sodipodi="http://sodipodi.sourceforge.net/DTD/sodipodi-0.dtd"
   xmlns="http://www.w3.org/2000/svg"
   xmlns:svg="http://www.w3.org/2000/svg">
  <defs
     id="defs3" />
  <sodipodi:namedview
     id="namedview3"
     pagecolor="#ffffff"
     bordercolor="#000000"
     borderopacity="0.25"
     inkscape:showpageshadow="2"
     inkscape:pageopacity="0.0"
     inkscape:pagecheckerboard="0"
     inkscape:deskcolor="#d1d1d1" />
  <path
     id="rect1"
     style="fill:none"
     d="M 0,0 H 1200 V 390 H 0 Z" />
  <g
     aria-label="UpMySalon"
     font-family="Accanthis ADF Std, Georgia, serif"
     font-size="152"
     font-weight="400"
     id="g2">
    <path
       d="m 65.8,73.6 c -0.456,0.304 -0.912,0.912 -0.912,1.824 0,0.608 0.456,1.52 0.912,1.976 h 3.648 c 2.432,0 4.256,0.456 4.256,3.8 v 69.312 c 0,19.152 18.544,31.008 37.24,31.008 20.216,0 39.824,-12.008 39.824,-32.832 V 81.96 c 0,-3.192 1.824,-4.256 3.952,-4.56 h 4.104 c 0.608,-0.608 0.76,-1.216 0.76,-1.976 0,-0.608 -0.304,-1.368 -0.76,-1.824 h -27.968 c -0.76,0.912 -1.064,1.52 -0.912,2.128 0,0.456 0.304,0.912 0.912,1.672 h 3.648 c 2.432,0 4.408,1.216 4.408,4.56 v 69.16 c 0,14.136 -6.536,26.6 -23.256,26.6 -17.328,0 -29.944,-13.224 -29.944,-29.488 V 81.2 c 0,-3.192 1.824,-3.648 3.8,-3.8 h 4.104 c 0.76,-0.608 0.912,-1.216 0.912,-1.976 0,-0.608 -0.304,-1.368 -0.912,-1.824 z m 121.1441,96.52 v -41.8 c 0,-8.512 8.36,-12.768 16.264,-12.768 20.064,0 22.952,19.608 22.952,34.656 0,10.032 -7.904,27.512 -20.368,27.512 -6.84,0 -13.832,-3.192 -18.848,-7.6 z m 1.52,-58.52 c -6.536,3.648 -15.048,4.712 -22.192,7.296 l 8.664,7.904 v 83.6 c 0,2.888 -1.368,3.648 -3.344,3.8 h -4.56 c -0.456,0.608 -0.608,1.216 -0.608,1.824 -0.152,0.608 0.152,1.216 0.608,1.976 h 27.968 c 0.456,-0.456 0.76,-1.216 0.76,-1.824 0,-0.76 -0.152,-1.368 -0.76,-1.976 h -4.864 c -1.824,0 -3.192,-0.912 -3.192,-3.8 v -36.48 c 4.408,4.104 13.224,7.6 19.304,7.6 19.912,0 32.68,-17.024 32.68,-34.96 0,-18.24 -12.312,-34.96 -32.68,-34.96 -7.752,0 -12.464,1.672 -19,5.472 v -0.608 c 0,-1.368 0.912,-3.496 1.216,-4.864 z"
       id="text1"
       style="fill:#c98f9e"
       aria-label="Up" />
    <path
       d="m 370.016,73.6 h -19.912 l -22.192,41.648 c -0.608,1.064 -1.52,2.584 -3.04,2.584 -1.368,0 -2.432,-1.52 -3.04,-2.584 L 297.816,73.6 h -16.72 c -0.456,0.304 -0.76,1.216 -0.76,1.824 0,0.608 0.304,1.52 0.76,1.976 h 2.736 c 3.952,0 5.016,0.456 5.168,3.8 l -6.384,91.2 c -0.304,3.648 -3.952,3.8 -7.904,3.8 -0.608,0.608 -0.76,1.216 -0.76,1.976 0,0.608 0.304,1.368 0.76,1.824 h 24.776 c 0.456,-0.608 0.76,-1.216 0.76,-1.824 0,-0.608 -0.304,-1.52 -0.76,-1.976 -4.104,0 -8.056,-0.152 -8.056,-3.8 l 5.928,-76.76 24.016,39.216 c 0.912,0.608 1.52,1.368 2.432,1.824 0.76,-0.304 1.368,0.152 2.432,-1.52 l 23.864,-43.32 6.384,80.56 v 0.304 c 0,3.344 -4.256,3.496 -8.056,3.496 -0.608,0.608 -0.76,1.216 -0.76,1.976 0,0.608 0.304,1.368 0.76,1.824 H 376.4 c 0.456,-0.608 0.76,-1.216 0.76,-1.824 0,-0.608 -0.304,-1.52 -0.76,-1.976 -3.952,0 -8.056,-0.152 -8.056,-3.8 L 361.96,81.2 v -0.456 c 0,-2.28 1.216,-3.344 6.992,-3.344 h 1.064 c 0.608,-0.76 0.608,-1.064 0.76,-1.976 -0.152,-0.608 -0.152,-1.52 -0.76,-1.824 z m 50.76809,106.096 -5.928,13.376 c -3.192,7.296 -17.48,17.784 -17.48,20.976 0,2.28 2.736,3.952 4.864,3.952 6.08,0 10.336,-5.928 12.616,-10.64 l 40.736,-85.424 c 2.128,-4.56 3.04,-5.016 8.056,-5.016 0.304,-0.608 0.76,-0.456 0.76,-1.976 0,-0.912 -0.608,-1.52 -0.76,-1.824 h -23.864 c -0.456,0.456 -1.216,1.216 -1.216,1.824 0,0.76 0.608,1.368 1.216,1.976 h 5.016 c 2.584,0 4.104,0.912 4.104,2.736 0,0.608 -0.152,1.368 -0.608,2.28 l -20.824,43.776 -23.864,-44.992 c -0.152,-0.456 -0.152,-0.912 -0.152,-1.216 0,-1.672 1.368,-2.432 3.8,-2.584 h 4.408 c 0.608,-0.608 0.76,-1.216 0.76,-1.976 0,-0.608 -0.304,-1.368 -0.76,-1.824 h -27.968 c -0.304,0.456 -0.608,1.216 -0.76,1.824 0.152,0.608 0.152,1.52 0.76,1.976 h 3.952 z m 84.96793,1.824 c 20.824,0 39.52,-8.816 39.52,-28.576 0,-34.808 -60.344,-29.184 -60.344,-55.024 v -0.304 c 0,-9.576 9.88,-21.584 20.672,-21.584 22.648,0 24.928,15.504 32.984,15.504 2.432,0 4.408,-1.824 4.408,-4.104 0,-9.576 -25.536,-15.352 -33.44,-15.352 -21.888,0 -36.48,10.032 -36.936,28.272 v 0.304 c 0,31.16 60.192,25.992 60.192,55.632 0,15.2 -18.392,21.432 -31.768,21.432 -18.088,0 -19,-19.76 -27.208,-19.76 -2.736,0 -4.864,1.976 -4.864,4.56 0,6.232 15.048,19 36.784,19 z m 92.416,-37.24 v 22.8 c 0,5.624 -10.944,10.64 -15.96,10.64 -8.056,0 -13.68,-5.168 -13.68,-13.072 0,-13.984 17.328,-20.216 29.64,-20.368 z m -18.544,37.24 c 6.992,0 14.288,-2.888 18.544,-8.512 v 0.152 c 0,4.864 4.712,8.36 9.576,8.36 3.952,0 9.424,-1.368 9.576,-6.08 -0.912,1.064 -1.976,2.128 -3.344,2.128 -3.648,0 -3.952,-6.08 -3.952,-8.36 V 131.36 c 0,-16.112 -14.44,-19.76 -28.424,-19.76 -6.688,0 -23.712,5.016 -23.712,12.92 0,2.28 2.128,4.408 4.712,4.408 5.472,0 8.968,-13.376 21.432,-13.376 11.096,0 14.136,10.032 14.136,18.848 v 7.6 c -13.376,0 -42.56,5.928 -42.56,22.496 0,12.16 12.92,17.024 24.016,17.024 z M 647.56815,66 c -8.056,0 -14.896,3.952 -21.584,7.6 l 7.904,7.6 v 91.2 c 0,2.888 -1.368,3.648 -3.344,3.8 h -4.56 c -0.608,0.76 -0.608,1.52 -0.608,2.128 0,0.456 0.304,1.064 0.608,1.672 h 27.968 c 0.456,-0.456 0.76,-1.216 0.76,-1.824 0,-0.76 -0.152,-1.368 -0.76,-1.976 h -4.864 c -1.824,0 -3.192,-0.912 -3.192,-3.8 V 73.6 c 0,-2.584 0.608,-5.168 1.672,-7.6 z m 48.03198,49.552 c 20.368,0 22.952,19.304 22.952,35.112 0,10.184 -4.256,26.904 -17.328,26.904 -19.304,0 -23.104,-19.76 -23.104,-34.656 0,-9.88 4.712,-27.36 17.48,-27.36 z m 2.584,-3.952 c -20.368,0 -33.288,17.024 -33.288,34.96 0,17.936 12.92,34.96 33.288,34.96 20.368,0 33.288,-17.024 33.288,-34.96 0,-17.936 -12.92,-34.96 -33.288,-34.96 z m 67.18406,0 c -7.904,0 -14.896,3.952 -21.584,7.6 l 8.056,7.6 v 45.6 c 0,2.888 -1.52,3.648 -3.344,3.8 h -4.712 c -0.608,0.76 -0.608,1.52 -0.608,2.128 0,0.456 0.304,1.064 0.608,1.672 h 27.968 c 0.456,-0.456 0.76,-1.216 0.76,-1.824 0,-0.76 -0.152,-1.368 -0.76,-1.976 h -4.712 c -1.976,0 -3.192,-0.912 -3.192,-3.8 v -40.28 c 4.56,-4.408 14.136,-12.92 21.128,-12.92 8.208,0 8.968,9.424 8.968,15.2 v 38 c 0,2.888 -1.368,3.648 -3.344,3.8 h -4.712 c -0.456,0.608 -0.608,1.216 -0.608,1.824 -0.152,0.608 0.152,1.216 0.608,1.976 h 27.968 c 0.456,-0.456 0.76,-1.216 0.76,-1.824 0,-0.76 -0.152,-1.368 -0.76,-1.976 h -4.712 c -1.976,0 -3.192,-0.912 -3.192,-3.8 v -41.8 c 0,-10.032 -6.84,-19 -18.088,-19 -10.792,0 -18.696,11.4 -24.016,19 v -11.4 c 0,-2.584 0.608,-5.168 1.52,-7.6 z"
       id="text2"
       style="fill:#443a38"
       aria-label="MySalon" />
  </g>
  <path
     d="M70 222 C330 170, 790 170, 1120 216"
     fill="none"
     stroke="#C9A35D"
     stroke-width="6"
     stroke-linecap="round"
     id="path2" />
  <path
     d="m 313.62012,314.33203 c 5.89355,0 10.14355,-3.91797 10.14355,-10.06055 v -2.70605 h -9.49609 v 2.75586 h 6.4082 c -0.083,4.34961 -2.92187,7.08887 -7.05566,7.08887 -4.54883,0 -8.00196,-3.45313 -8.00196,-9.76172 0,-6.3584 3.46973,-9.79492 7.81934,-9.79492 3.50293,0 5.87695,1.99218 6.88965,5.16308 h 3.2539 c -0.89648,-4.79785 -4.93066,-8.08496 -10.16015,-8.08496 -6.3418,0 -10.87403,4.86426 -10.87403,12.7168 0,7.81933 4.46583,12.68359 11.07325,12.68359 z M 332.51172,314 H 335.5 v -18.56055 h -2.98828 z m 1.51074,-21.59863 c 1.14551,0 2.0918,-0.87989 2.0918,-1.97559 0,-1.0957 -0.94629,-1.97558 -2.0918,-1.97558 -1.12891,0 -2.07519,0.87988 -2.07519,1.97558 0,1.0957 0.94628,1.97559 2.07519,1.97559 z m 17.01563,21.83105 c 2.44043,0 4.46582,-0.99609 5.67773,-3.70215 V 314 h 2.88867 v -18.56055 h -3.00488 v 11.12305 c 0,3.1709 -2.00879,4.98047 -4.66504,4.98047 -2.58984,0 -4.2002,-1.70996 -4.2002,-4.56543 v -11.53809 h -2.98828 v 11.78711 c 0,4.69824 2.54004,7.00586 6.292,7.00586 z m -0.18262,-21.2168 h 2.44043 l 3.2207,-4.88085 h -3.33691 z m 17.99512,27.92383 h 2.98828 v -9.81152 h 0.23242 c 0.61426,1.0293 1.85937,3.27051 5.39551,3.27051 4.63183,0 7.85254,-3.71875 7.85254,-9.62891 0,-5.87695 -3.23731,-9.5625 -7.86914,-9.5625 -3.61915,0 -4.76465,2.22461 -5.37891,3.2041 h -0.33203 v -2.97168 h -2.88867 z m 8.16796,-9.21386 c -3.37011,0 -5.21289,-2.85547 -5.21289,-6.98926 0,-4.10059 1.79297,-6.85645 5.21289,-6.85645 3.51954,0 5.2627,3.00489 5.2627,6.85645 0,3.90137 -1.79297,6.98926 -5.2627,6.98926 z m 37.51758,-16.28614 h -3.81836 v -4.41601 h -2.98828 v 4.41601 h -2.78906 v 2.55664 h 2.78906 v 11.42188 c 0,3.03808 1.89258,4.81445 5.09668,4.81445 0.76367,0 1.61035,-0.11621 2.22461,-0.33203 l -0.61426,-2.52344 c -0.49804,0.0996 -1.1455,0.19922 -1.52734,0.19922 -1.57715,0 -2.19141,-0.73047 -2.19141,-2.39062 v -11.18946 h 3.81836 z M 422.35449,314 h 2.98828 v -18.56055 h -2.98828 z m 1.51074,-21.59863 c 1.14551,0 2.0918,-0.87989 2.0918,-1.97559 0,-1.0957 -0.94629,-1.97558 -2.0918,-1.97558 -1.1289,0 -2.07519,0.87988 -2.07519,1.97558 0,1.0957 0.94629,1.97559 2.07519,1.97559 z m 18.52637,21.99707 c 3.80176,0 6.57422,-1.90918 7.4375,-4.71485 l -2.88867,-0.79687 c -0.69727,1.89258 -2.34082,2.85547 -4.53223,2.85547 -3.28711,0 -5.54492,-2.125 -5.69433,-6.00977 h 13.41406 v -1.24512 c 0,-6.85644 -4.15039,-9.28027 -8.08496,-9.28027 -5.06348,0 -8.35059,3.96777 -8.35059,9.66211 0,5.71094 3.32032,9.5293 8.69922,9.5293 z m -5.66113,-11.18946 c 0.18262,-2.83886 2.125,-5.3457 5.3125,-5.3457 3.05469,0 4.76465,2.19141 5.04687,5.3457 z m 2.85547,-10.49218 2.39062,-2.90528 2.35742,2.90528 h 2.97168 v -0.14942 l -3.91796,-4.43261 h -2.83887 l -3.90137,4.43261 v 0.14942 z m 2.44043,28.27246 c 1.1455,0 2.09179,-0.87989 2.09179,-1.97559 0,-1.0957 -0.94629,-1.97558 -2.09179,-1.97558 -1.12891,0 -2.0752,0.87988 -2.0752,1.97558 0,1.0957 0.94629,1.97559 2.0752,1.97559 z M 458.41113,314 h 2.98828 v -11.6875 c 0,-2.95508 1.97559,-4.48242 4.15039,-4.48242 2.0918,0 3.63575,1.37793 3.63575,3.43652 V 314 h 2.98828 v -12.11914 c 0,-2.34082 1.52734,-4.05078 4.03418,-4.05078 1.99219,0 3.75195,1.0625 3.75195,3.73535 V 314 h 2.98828 v -12.51758 c 0,-4.2998 -2.62304,-6.375 -5.84375,-6.375 -2.68945,0 -4.96387,1.44434 -5.84375,3.78516 -0.66406,-2.29102 -2.29101,-3.78516 -4.73144,-3.78516 -2.19141,0 -4.28321,1.22852 -5.19629,3.73535 l -0.0166,-3.40332 h -2.90528 z m 50.33399,-11.12305 c 0,-3.1709 2.00879,-4.98047 4.68164,-4.98047 2.58984,0 4.18359,1.70997 4.18359,4.56543 V 314 h 2.98828 v -11.78711 c 0,-4.69824 -2.52343,-7.00586 -6.27539,-7.00586 -2.49023,0 -4.48242,1.0459 -5.67773,3.66895 l -0.0166,-3.43653 h -2.87207 V 314 h 2.98828 z m 26.2959,11.55469 c 3.13769,0 4.88085,-1.64355 5.51171,-2.95508 h 0.19922 V 314 h 2.93848 v -12.23535 c 0,-5.79395 -4.46582,-6.55762 -6.95606,-6.55762 -2.87207,0 -6.05957,1.0293 -7.4873,4.39942 l 2.87207,0.94628 c 0.58106,-1.29492 2.02539,-2.72265 4.69824,-2.72265 2.57324,0 3.88477,1.32812 3.88477,3.63574 v 0.0996 c 0,1.37793 -1.46094,1.27832 -4.76465,1.69336 -3.43652,0.43164 -7.22168,1.21191 -7.22168,5.46191 0,3.65235 2.80566,5.71094 6.3252,5.71094 z m 0.51464,-2.63965 c -2.22461,0 -3.83496,-0.99609 -3.83496,-2.92187 0,-2.1084 1.90918,-2.80567 4.08399,-3.08789 1.14551,-0.14942 4.39941,-0.48145 4.89746,-1.0625 v 2.57324 c 0,2.27441 -1.84278,4.49902 -5.14649,4.49902 z M 552.93652,314 h 2.98828 v -18.56055 h -2.98828 z m 1.51075,-21.59863 c 1.1455,0 2.09179,-0.87989 2.09179,-1.97559 0,-1.0957 -0.94629,-1.97558 -2.09179,-1.97558 -1.12891,0 -2.0752,0.87988 -2.0752,1.97558 0,1.0957 0.94629,1.97559 2.0752,1.97559 z m 13.71191,-3.1377 H 565.1709 V 314 h 2.98828 z m 29.76465,25.13477 c 3.53613,0 4.78125,-2.24121 5.39551,-3.27051 h 0.33203 V 314 h 2.88867 v -20.50293 h 2.45703 v -2.29102 h -2.45703 v -1.94238 h -2.98828 v 1.94238 h -5.2793 v 2.29102 h 5.2793 v 4.91406 h -0.23242 c -0.61426,-0.97949 -1.75977,-3.2041 -5.37891,-3.2041 -4.63184,0 -7.86914,3.68555 -7.86914,9.5625 0,5.91016 3.2207,9.62891 7.85254,9.62891 z m 0.44824,-2.67285 c -3.46973,0 -5.2627,-3.08789 -5.2627,-6.98926 0,-3.85156 1.74317,-6.85645 5.2627,-6.85645 3.41992,0 5.21289,2.75586 5.21289,6.85645 0,4.13379 -1.84277,6.98926 -5.21289,6.98926 z m 24.96777,2.67285 c 5.06348,0 8.4834,-3.83496 8.4834,-9.5625 0,-5.81055 -3.41992,-9.62891 -8.4834,-9.62891 -5.04687,0 -8.45019,3.81836 -8.45019,9.62891 0,5.72754 3.40332,9.5625 8.45019,9.5625 z m 0,-2.67285 c -3.70214,0 -5.41211,-3.23731 -5.41211,-6.88965 0,-3.70215 1.70997,-6.95606 5.41211,-6.95606 3.75196,0 5.46192,3.27051 5.46192,6.95606 0,3.65234 -1.70996,6.88965 -5.46192,6.88965 z m -2.39062,-19.00879 2.39062,-2.90528 2.35743,2.90528 h 2.97168 v -0.14942 l -3.91797,-4.43261 h -2.83887 l -3.90137,4.43261 v 0.14942 z m 22.21191,10.16015 c 0,-3.1709 2.00879,-4.98047 4.68164,-4.98047 2.58985,0 4.1836,1.70997 4.1836,4.56543 V 314 h 2.98828 v -11.78711 c 0,-4.69824 -2.52344,-7.00586 -6.27539,-7.00586 -2.49024,0 -4.48242,1.0459 -5.67774,3.66895 l -0.0166,-3.43653 h -2.87207 V 314 h 2.98828 z m 28.62012,18.46094 c 4.51562,0 8.08496,-2.05859 8.08496,-6.85644 v -19.042 h -2.90527 v 2.97168 h -0.28223 c -0.63086,-0.99609 -1.82617,-3.2041 -5.41211,-3.2041 -4.63183,0 -7.90234,3.68555 -7.90234,9.42969 0,5.82715 3.38672,9.06445 7.83594,9.06445 3.58593,0 4.76464,-2.04199 5.3955,-3.10449 h 0.28223 v 3.71875 c 0,3.05469 -2.1416,4.41602 -5.09668,4.41602 -3.27051,0 -4.43262,-1.66016 -5.21289,-2.73926 l -2.42383,1.56054 c 1.14551,2.042 3.51953,3.78516 7.63672,3.78516 z m -0.083,-10.29297 c -3.48633,0 -5.2959,-2.65625 -5.2959,-6.47461 0,-3.70215 1.75977,-6.69043 5.2959,-6.69043 3.41992,0 5.21289,2.75586 5.21289,6.69043 0,4.05078 -1.84277,6.47461 -5.21289,6.47461 z M 702.6748,314 h 2.98829 v -6.83984 l 1.95898,-1.84278 6.79004,8.68262 h 3.83496 l -8.35059,-10.5918 7.76954,-7.96875 h -3.70215 l -7.93555,8.18457 h -0.36523 v -14.36035 h -2.98829 z m 25.64844,-11.12305 c 0,-3.1709 2.00879,-4.98047 4.68164,-4.98047 2.58985,0 4.1836,1.70997 4.1836,4.56543 V 314 h 3.00488 v -11.78711 c 0,-4.69824 -2.54004,-7.00586 -6.29199,-7.00586 -2.42383,0 -4.36621,0.97949 -5.57813,3.45313 v -9.39649 h -2.98828 V 314 h 2.98828 z m 26.3125,11.55469 c 3.1377,0 4.88086,-1.64355 5.51172,-2.95508 h 0.19922 V 314 h 2.93848 v -12.23535 c 0,-5.79395 -4.46582,-6.55762 -6.95606,-6.55762 -2.87207,0 -6.05957,1.0293 -7.4873,4.39942 l 2.87207,0.94628 c 0.58105,-1.29492 2.02539,-2.72265 4.69824,-2.72265 2.57324,0 3.88476,1.32812 3.88476,3.63574 v 0.0996 c 0,1.37793 -1.46093,1.27832 -4.76464,1.69336 -3.43653,0.43164 -7.22168,1.21191 -7.22168,5.46191 0,3.65235 2.80566,5.71094 6.32519,5.71094 z m 0.51465,-2.63965 c -2.22461,0 -3.83496,-0.99609 -3.83496,-2.92187 0,-2.1084 1.90918,-2.80567 4.08398,-3.08789 1.14551,-0.14942 4.39942,-0.48145 4.89746,-1.0625 v 2.57324 c 0,2.27441 -1.84277,4.49902 -5.14648,4.49902 z m -0.38184,-18.77637 h 2.44043 l 3.22071,-4.88085 h -3.33692 z m 25.31641,21.38282 c 3.63574,0 6.59082,-1.97559 7.58691,-5.2793 l -2.85546,-0.81348 c -0.54786,2.00879 -2.24121,3.41993 -4.73145,3.41993 -3.70215,0 -5.41211,-3.23731 -5.41211,-6.88965 0,-3.70215 1.70996,-6.95606 5.41211,-6.95606 2.44043,0 4.10059,1.36133 4.64844,3.27051 l 2.87207,-0.81348 c -1.0127,-3.2373 -3.93457,-5.12988 -7.52051,-5.12988 -5.04687,0 -8.45019,3.81836 -8.45019,9.62891 0,5.72754 3.40332,9.5625 8.45019,9.5625 z m 18.8584,-11.52149 c 0,-3.1709 2.00879,-4.98047 4.68164,-4.98047 2.58984,0 4.18359,1.70997 4.18359,4.56543 V 314 h 3.00489 v -11.78711 c 0,-4.69824 -2.54004,-7.00586 -6.292,-7.00586 -2.42382,0 -4.36621,0.97949 -5.57812,3.45313 v -9.39649 h -2.98828 V 314 h 2.98828 z m 37.66699,0 c 0,-3.1709 2.00879,-4.98047 4.68164,-4.98047 2.58985,0 4.1836,1.70997 4.1836,4.56543 V 314 h 3.00488 v -11.78711 c 0,-4.69824 -2.54004,-7.00586 -6.29199,-7.00586 -2.42383,0 -4.36621,0.97949 -5.57813,3.45313 v -9.39649 h -2.98828 V 314 h 2.98828 z m 28.66992,11.52149 c 5.06348,0 8.4834,-3.83496 8.4834,-9.5625 0,-3.32032 -1.1123,-5.99317 -3.02148,-7.66992 h 0.69726 c 1.89258,0 2.82227,-0.84668 2.82227,-2.55665 v -3.2871 h -2.78906 v 3.55273 c 0,0.36523 -0.19922,0.56445 -0.56446,0.56445 -1.89258,0 -3.66894,-0.23242 -5.56152,-0.23242 -0.0332,0 -0.0498,0 -0.0664,0 h -0.0166 -0.0166 c -5.03027,0.0166 -8.41699,3.83496 -8.41699,9.62891 0,5.72754 3.40332,9.5625 8.45019,9.5625 z m 0,-2.67285 c -3.70215,0 -5.41211,-3.23731 -5.41211,-6.88965 0,-3.70215 1.70996,-6.95606 5.41211,-6.95606 3.75196,0 5.46192,3.27051 5.46192,6.95606 0,3.65234 -1.70996,6.88965 -5.46192,6.88965 z m 19.72168,-8.84864 c 0,-3.1709 2.00879,-4.98047 4.68164,-4.98047 2.58985,0 4.1836,1.70997 4.1836,4.56543 V 314 h 2.98828 v -11.78711 c 0,-4.69824 -2.52344,-7.00586 -6.27539,-7.00586 -2.49024,0 -4.48242,1.0459 -5.67774,3.66895 l -0.0166,-3.43653 h -2.87207 V 314 h 2.98828 z"
     id="text3"
     style="font-size:34px;font-family:Inter, Arial, sans-serif;letter-spacing:4;text-anchor:middle;fill:#665a56"
     aria-label="Giúp tiệm nail đông khách hơn" />
</svg>
