<?xml version="1.0" encoding="UTF-8" standalone="no"?>
<svg
   width="1200"
   height="300"
   viewBox="0 0 1200 300"
   version="1.1"
   id="svg2"
   sodipodi:docname="logo-horizontal.svg"
   xmlns:inkscape="http://www.inkscape.org/namespaces/inkscape"
   xmlns:sodipodi="http://sodipodi.sourceforge.net/DTD/sodipodi-0.dtd"
   xmlns="http://www.w3.org/2000/svg"
   xmlns:svg="http://www.w3.org/2000/svg">
  <defs
     id="defs2" />
  <sodipodi:namedview
     id="namedview2"
     pagecolor="#ffffff"
     bordercolor="#000000"
     borderopacity="0.25"
     inkscape:showpageshadow="2"
     inkscape:pageopacity="0.0"
     inkscape:pagecheckerboard="0"
     inkscape:deskcolor="#d1d1d1" />
  <path
     id="rect1"
     style="fill:none"
     d="M 0,0 H 1200 V 300 H 0 Z" />
  <g
     aria-label="UpMySalon"
     font-family="Accanthis ADF Std, Georgia, serif"
     font-size="152"
     font-weight="400"
     id="g2">
    <path
       d="m 65.8,83.6 c -0.456,0.304 -0.912,0.912 -0.912,1.824 0,0.608 0.456,1.52 0.912,1.976 h 3.648 c 2.432,0 4.256,0.456 4.256,3.8 v 69.312 c 0,19.152 18.544,31.008 37.24,31.008 20.216,0 39.824,-12.008 39.824,-32.832 V 91.96 c 0,-3.192 1.824,-4.256 3.952,-4.56 h 4.104 c 0.608,-0.608 0.76,-1.216 0.76,-1.976 0,-0.608 -0.304,-1.368 -0.76,-1.824 h -27.968 c -0.76,0.912 -1.064,1.52 -0.912,2.128 0,0.456 0.304,0.912 0.912,1.672 h 3.648 c 2.432,0 4.408,1.216 4.408,4.56 v 69.16 c 0,14.136 -6.536,26.6 -23.256,26.6 -17.328,0 -29.944,-13.224 -29.944,-29.488 V 91.2 c 0,-3.192 1.824,-3.648 3.8,-3.8 h 4.104 c 0.76,-0.608 0.912,-1.216 0.912,-1.976 0,-0.608 -0.304,-1.368 -0.912,-1.824 z m 121.1441,96.52 v -41.8 c 0,-8.512 8.36,-12.768 16.264,-12.768 20.064,0 22.952,19.608 22.952,34.656 0,10.032 -7.904,27.512 -20.368,27.512 -6.84,0 -13.832,-3.192 -18.848,-7.6 z m 1.52,-58.52 c -6.536,3.648 -15.048,4.712 -22.192,7.296 l 8.664,7.904 v 83.6 c 0,2.888 -1.368,3.648 -3.344,3.8 h -4.56 c -0.456,0.608 -0.608,1.216 -0.608,1.824 -0.152,0.608 0.152,1.216 0.608,1.976 h 27.968 c 0.456,-0.456 0.76,-1.216 0.76,-1.824 0,-0.76 -0.152,-1.368 -0.76,-1.976 h -4.864 c -1.824,0 -3.192,-0.912 -3.192,-3.8 v -36.48 c 4.408,4.104 13.224,7.6 19.304,7.6 19.912,0 32.68,-17.024 32.68,-34.96 0,-18.24 -12.312,-34.96 -32.68,-34.96 -7.752,0 -12.464,1.672 -19,5.472 v -0.608 c 0,-1.368 0.912,-3.496 1.216,-4.864 z"
       id="text1"
       style="fill:#c98f9e"
       aria-label="Up" />
    <path
       d="m 370.016,83.6 h -19.912 l -22.192,41.648 c -0.608,1.064 -1.52,2.584 -3.04,2.584 -1.368,0 -2.432,-1.52 -3.04,-2.584 L 297.816,83.6 h -16.72 c -0.456,0.304 -0.76,1.216 -0.76,1.824 0,0.608 0.304,1.52 0.76,1.976 h 2.736 c 3.952,0 5.016,0.456 5.168,3.8 l -6.384,91.2 c -0.304,3.648 -3.952,3.8 -7.904,3.8 -0.608,0.608 -0.76,1.216 -0.76,1.976 0,0.608 0.304,1.368 0.76,1.824 h 24.776 c 0.456,-0.608 0.76,-1.216 0.76,-1.824 0,-0.608 -0.304,-1.52 -0.76,-1.976 -4.104,0 -8.056,-0.152 -8.056,-3.8 l 5.928,-76.76 24.016,39.216 c 0.912,0.608 1.52,1.368 2.432,1.824 0.76,-0.304 1.368,0.152 2.432,-1.52 l 23.864,-43.32 6.384,80.56 v 0.304 c 0,3.344 -4.256,3.496 -8.056,3.496 -0.608,0.608 -0.76,1.216 -0.76,1.976 0,0.608 0.304,1.368 0.76,1.824 H 376.4 c 0.456,-0.608 0.76,-1.216 0.76,-1.824 0,-0.608 -0.304,-1.52 -0.76,-1.976 -3.952,0 -8.056,-0.152 -8.056,-3.8 L 361.96,91.2 v -0.456 c 0,-2.28 1.216,-3.344 6.992,-3.344 h 1.064 c 0.608,-0.76 0.608,-1.064 0.76,-1.976 -0.152,-0.608 -0.152,-1.52 -0.76,-1.824 z m 50.76809,106.096 -5.928,13.376 c -3.192,7.296 -17.48,17.784 -17.48,20.976 0,2.28 2.736,3.952 4.864,3.952 6.08,0 10.336,-5.928 12.616,-10.64 l 40.736,-85.424 c 2.128,-4.56 3.04,-5.016 8.056,-5.016 0.304,-0.608 0.76,-0.456 0.76,-1.976 0,-0.912 -0.608,-1.52 -0.76,-1.824 h -23.864 c -0.456,0.456 -1.216,1.216 -1.216,1.824 0,0.76 0.608,1.368 1.216,1.976 h 5.016 c 2.584,0 4.104,0.912 4.104,2.736 0,0.608 -0.152,1.368 -0.608,2.28 l -20.824,43.776 -23.864,-44.992 c -0.152,-0.456 -0.152,-0.912 -0.152,-1.216 0,-1.672 1.368,-2.432 3.8,-2.584 h 4.408 c 0.608,-0.608 0.76,-1.216 0.76,-1.976 0,-0.608 -0.304,-1.368 -0.76,-1.824 h -27.968 c -0.304,0.456 -0.608,1.216 -0.76,1.824 0.152,0.608 0.152,1.52 0.76,1.976 h 3.952 z m 84.96793,1.824 c 20.824,0 39.52,-8.816 39.52,-28.576 0,-34.808 -60.344,-29.184 -60.344,-55.024 v -0.304 c 0,-9.576 9.88,-21.584 20.672,-21.584 22.648,0 24.928,15.504 32.984,15.504 2.432,0 4.408,-1.824 4.408,-4.104 0,-9.576 -25.536,-15.352 -33.44,-15.352 -21.888,0 -36.48,10.032 -36.936,28.272 v 0.304 c 0,31.16 60.192,25.992 60.192,55.632 0,15.2 -18.392,21.432 -31.768,21.432 -18.088,0 -19,-19.76 -27.208,-19.76 -2.736,0 -4.864,1.976 -4.864,4.56 0,6.232 15.048,19 36.784,19 z m 92.416,-37.24 v 22.8 c 0,5.624 -10.944,10.64 -15.96,10.64 -8.056,0 -13.68,-5.168 -13.68,-13.072 0,-13.984 17.328,-20.216 29.64,-20.368 z m -18.544,37.24 c 6.992,0 14.288,-2.888 18.544,-8.512 v 0.152 c 0,4.864 4.712,8.36 9.576,8.36 3.952,0 9.424,-1.368 9.576,-6.08 -0.912,1.064 -1.976,2.128 -3.344,2.128 -3.648,0 -3.952,-6.08 -3.952,-8.36 V 141.36 c 0,-16.112 -14.44,-19.76 -28.424,-19.76 -6.688,0 -23.712,5.016 -23.712,12.92 0,2.28 2.128,4.408 4.712,4.408 5.472,0 8.968,-13.376 21.432,-13.376 11.096,0 14.136,10.032 14.136,18.848 v 7.6 c -13.376,0 -42.56,5.928 -42.56,22.496 0,12.16 12.92,17.024 24.016,17.024 z M 647.56815,76 c -8.056,0 -14.896,3.952 -21.584,7.6 l 7.904,7.6 v 91.2 c 0,2.888 -1.368,3.648 -3.344,3.8 h -4.56 c -0.608,0.76 -0.608,1.52 -0.608,2.128 0,0.456 0.304,1.064 0.608,1.672 h 27.968 c 0.456,-0.456 0.76,-1.216 0.76,-1.824 0,-0.76 -0.152,-1.368 -0.76,-1.976 h -4.864 c -1.824,0 -3.192,-0.912 -3.192,-3.8 V 83.6 c 0,-2.584 0.608,-5.168 1.672,-7.6 z m 48.03198,49.552 c 20.368,0 22.952,19.304 22.952,35.112 0,10.184 -4.256,26.904 -17.328,26.904 -19.304,0 -23.104,-19.76 -23.104,-34.656 0,-9.88 4.712,-27.36 17.48,-27.36 z m 2.584,-3.952 c -20.368,0 -33.288,17.024 -33.288,34.96 0,17.936 12.92,34.96 33.288,34.96 20.368,0 33.288,-17.024 33.288,-34.96 0,-17.936 -12.92,-34.96 -33.288,-34.96 z m 67.18406,0 c -7.904,0 -14.896,3.952 -21.584,7.6 l 8.056,7.6 v 45.6 c 0,2.888 -1.52,3.648 -3.344,3.8 h -4.712 c -0.608,0.76 -0.608,1.52 -0.608,2.128 0,0.456 0.304,1.064 0.608,1.672 h 27.968 c 0.456,-0.456 0.76,-1.216 0.76,-1.824 0,-0.76 -0.152,-1.368 -0.76,-1.976 h -4.712 c -1.976,0 -3.192,-0.912 -3.192,-3.8 v -40.28 c 4.56,-4.408 14.136,-12.92 21.128,-12.92 8.208,0 8.968,9.424 8.968,15.2 v 38 c 0,2.888 -1.368,3.648 -3.344,3.8 h -4.712 c -0.456,0.608 -0.608,1.216 -0.608,1.824 -0.152,0.608 0.152,1.216 0.608,1.976 h 27.968 c 0.456,-0.456 0.76,-1.216 0.76,-1.824 0,-0.76 -0.152,-1.368 -0.76,-1.976 h -4.712 c -1.976,0 -3.192,-0.912 -3.192,-3.8 v -41.8 c 0,-10.032 -6.84,-19 -18.088,-19 -10.792,0 -18.696,11.4 -24.016,19 v -11.4 c 0,-2.584 0.608,-5.168 1.52,-7.6 z"
       id="text2"
       style="fill:#443a38"
       aria-label="MySalon" />
  </g>
  <path
     d="M70 232 C330 180, 790 180, 1120 226"
     fill="none"
     stroke="#C9A35D"
     stroke-width="6"
     stroke-linecap="round"
     id="path2" />
</svg>
