<?xml version="1.0" encoding="UTF-8" standalone="no"?>
<svg
   width="512"
   height="512"
   viewBox="0 0 512 512"
   version="1.1"
   id="svg1"
   sodipodi:docname="logo-icon.svg"
   xmlns:inkscape="http://www.inkscape.org/namespaces/inkscape"
   xmlns:sodipodi="http://sodipodi.sourceforge.net/DTD/sodipodi-0.dtd"
   xmlns="http://www.w3.org/2000/svg"
   xmlns:svg="http://www.w3.org/2000/svg">
  <defs
     id="defs1" />
  <sodipodi:namedview
     id="namedview1"
     pagecolor="#ffffff"
     bordercolor="#000000"
     borderopacity="0.25"
     inkscape:showpageshadow="2"
     inkscape:pageopacity="0.0"
     inkscape:pagecheckerboard="0"
     inkscape:deskcolor="#d1d1d1" />
  <path
     id="rect1"
     style="fill:#fff9f6"
     d="m 128,16 h 256 c 62.048,0 112,49.952 112,112 v 256 c 0,62.048 -49.952,112 -112,112 H 128 C 65.952,496 16,446.048 16,384 V 128 C 16,65.952 65.952,16 128,16 Z" />
  <path
     d="m 158.0799,108 c -0.96,0.64 -1.92,1.92 -1.92,3.84 0,1.28 0.96,3.2 1.92,4.16 h 7.68 c 5.12,0 8.96,0.96 8.96,8 v 145.92 c 0,40.32 39.04,65.28 78.4,65.28 42.56,0 83.84,-25.28 83.84,-69.12 V 125.6 c 0,-6.72 3.84,-8.96 8.32,-9.6 h 8.64 c 1.28,-1.28 1.6,-2.56 1.6,-4.16 0,-1.28 -0.64,-2.88 -1.6,-3.84 h -58.88 c -1.6,1.92 -2.24,3.2 -1.92,4.48 0,0.96 0.64,1.92 1.92,3.52 h 7.68 c 5.12,0 9.28,2.56 9.28,9.6 v 145.6 c 0,29.76 -13.76,56 -48.96,56 -36.48,0 -63.04,-27.84 -63.04,-62.08 V 124 c 0,-6.72 3.84,-7.68 8,-8 h 8.64 c 1.6,-1.28 1.92,-2.56 1.92,-4.16 0,-1.28 -0.64,-2.88 -1.92,-3.84 z"
     id="text1"
     style="font-size:320px;font-family:'Accanthis ADF Std', Georgia, serif;text-anchor:middle;fill:#c98f9e"
     aria-label="U" />
  <path
     d="M100 375 C210 335, 340 337, 414 370"
     fill="none"
     stroke="#C9A35D"
     stroke-width="15"
     stroke-linecap="round"
     id="path1" />
</svg>
